<svg width="40" height="39" viewBox="0 0 40 39" fill="none" xmlns="http://www.w3.org/2000/svg">
<path d="M39.4955 37.7014L26.9217 24.6585C28.8729 22.0418 29.9283 18.8426 29.9283 15.4777C29.9283 11.4498 28.4129 7.67298 25.6725 4.82533C22.9321 1.97767 19.2815 0.410706 15.4033 0.410706C11.5252 0.410706 7.87456 1.98269 5.13418 4.82533C2.38896 7.66796 0.878357 11.4498 0.878357 15.4777C0.878357 19.5005 2.3938 23.2874 5.13418 26.13C7.87456 28.9777 11.5203 30.5446 15.4033 30.5446C18.6473 30.5446 21.7266 29.4498 24.2491 27.4308L36.8229 40.4687C36.8597 40.507 36.9035 40.5374 36.9517 40.5581C36.9999 40.5788 37.0515 40.5895 37.1037 40.5895C37.1558 40.5895 37.2075 40.5788 37.2557 40.5581C37.3039 40.5374 37.3476 40.507 37.3845 40.4687L39.4955 38.284C39.5324 38.2458 39.5616 38.2004 39.5816 38.1504C39.6016 38.1004 39.6118 38.0468 39.6118 37.9927C39.6118 37.9386 39.6016 37.8851 39.5816 37.8351C39.5616 37.7851 39.5324 37.7397 39.4955 37.7014ZM23.0725 23.433C21.0197 25.5575 18.2987 26.7277 15.4033 26.7277C12.508 26.7277 9.78702 25.5575 7.73415 23.433C5.68613 21.3036 4.55802 18.481 4.55802 15.4777C4.55802 12.4743 5.68613 9.64676 7.73415 7.52231C9.78702 5.39787 12.508 4.22767 15.4033 4.22767C18.2987 4.22767 21.0245 5.39285 23.0725 7.52231C25.1206 9.65178 26.2487 12.4743 26.2487 15.4777C26.2487 18.481 25.1206 21.3086 23.0725 23.433Z" fill="#F4F4F4"/>
</svg>
